<?xml version="1.0" encoding="UTF-8" standalone="no"?>
<svg width="200px" height="200px" viewBox="0 0 200 200" version="1.1" xmlns="http://www.w3.org/2000/svg" xmlns:xlink="http://www.w3.org/1999/xlink" xmlns:sketch="http://www.bohemiancoding.com/sketch/ns">
    <!-- Generator: Sketch 3.4.4 (17249) - http://www.bohemiancoding.com/sketch -->
    <title>sprite</title>
    <desc>Created with Sketch.</desc>
    <defs></defs>
    <g id="Page-1" stroke="none" stroke-width="1" fill="none" fill-rule="evenodd" sketch:type="MSPage">
        <g id="sprite" sketch:type="MSArtboardGroup">
            <path d="M26.515,5.11587106 L28.556,5.11587106 C28.715,5.11587106 28.772,5.05887106 28.772,4.89987106 C28.772,4.40987106 28.777,3.92087106 28.77,3.43187106 C28.768,3.24987106 28.755,3.06487106 28.719,2.88787106 C28.478,1.70687106 27.411,0.901871061 26.254,1.04787106 C25.461,1.14787106 24.885,1.57287106 24.511,2.28687106 C24.329,2.63387106 24.27,3.01387106 24.26,3.39887106 C24.247,3.89287106 24.257,4.38887106 24.257,4.88387106 C24.257,5.06287106 24.308,5.11587106 24.482,5.11587106 L26.515,5.11587106 Z M26.499,11.9998711 L22.483,11.9998711 C22.186,11.9998711 22,11.8128711 22,11.5128711 L22,5.59887106 C22,5.30487106 22.187,5.11587106 22.479,5.11587106 L23.059,5.11587106 C23.2,5.11487106 23.261,5.05287106 23.262,4.91087106 C23.263,4.33987106 23.251,3.76887106 23.267,3.19787106 C23.287,2.42787106 23.55,1.74387106 24.044,1.15887106 C24.559,0.547871061 25.212,0.167871061 25.994,0.0438710614 C26.929,-0.104128939 27.777,0.121871061 28.515,0.728871061 C29.185,1.28087106 29.576,2.00187106 29.713,2.86487106 C29.737,3.01987106 29.748,3.17787106 29.749,3.33487106 C29.754,3.85187106 29.751,4.36887106 29.751,4.88687106 C29.751,5.04087106 29.81,5.09887106 29.963,5.09887106 L30.552,5.09887106 C30.816,5.09987106 30.996,5.28187106 30.996,5.54687106 L30.996,11.5108711 C30.996,11.8108711 30.81,11.9998711 30.515,11.9998711 L26.499,11.9998711 Z" id="lock" fill="#999999" sketch:type="MSShapeGroup"></path>
            <path d="M5.31443163,6.7023256 L5.31443163,8.8823256 L6.70343163,8.8823256 L6.70343163,6.6953256 L8.87943163,6.6953256 L8.87943163,5.3113256 L6.69943163,5.3113256 L6.69943163,3.1143256 L5.30643163,3.1143256 L5.30643163,5.3113256 L3.11743163,5.3113256 L3.11743163,6.7023256 L5.31443163,6.7023256 Z M0.00443162526,5.8053256 C0.116431625,2.4143256 2.94643163,-0.0656744045 6.09043163,0.00132559549 C9.63843163,0.0753255955 12.0944316,3.0313256 11.9954316,6.1583256 C11.8844316,9.6443256 8.97643163,12.0783256 5.86843163,11.9973256 C2.37143163,11.9093256 -0.119568375,8.9683256 0.00443162526,5.8053256 L0.00443162526,5.8053256 Z" id="plus" fill="#FFFFFF" sketch:type="MSShapeGroup"></path>
            <path d="M47.0353015,6.53242717 L47.0353015,10.3297306 C47.0353015,10.364744 47.0450908,10.4034809 47.0334397,10.4340501 C46.9978257,10.5275593 46.9762652,10.6635291 46.9073194,10.6973413 C46.8299055,10.7352375 46.6884105,10.7093528 46.6068527,10.6592049 C46.3606177,10.5075602 46.1294571,10.3314122 45.8933118,10.163612 C45.1927433,9.66591715 44.4945171,9.1649191 43.7914262,8.67088769 C43.4645343,8.44122855 43.0939807,8.32880127 42.6951401,8.32231508 C42.3250069,8.31630935 41.9546936,8.32195474 41.5845003,8.32075359 C41.2395912,8.31973262 41.0019445,8.0837074 41.0012238,7.73687646 C40.9995422,6.88634488 40.9996623,6.0358133 41.0011637,5.18534178 C41.0017643,4.82475772 41.2302223,4.5994227 41.5906262,4.59443794 C42.0303658,4.58837216 42.4708861,4.59389743 42.9096648,4.56897365 C43.2484481,4.54975531 43.5584038,4.42003153 43.8410335,4.22952975 C44.7274193,3.63213972 45.6142255,3.03535026 46.5009116,2.43838064 C46.5299193,2.41886201 46.5588669,2.39922327 46.5884151,2.38054545 C46.6900921,2.31634419 46.8138101,2.26247278 46.9068389,2.34667313 C46.9773462,2.41051405 47.0294159,2.53321112 47.0300164,2.63008356 C47.037884,3.93086476 47.0353015,5.23164597 47.0353015,6.53242717 Z M58,6.51586337 C57.9679294,7.97183265 57.7229556,9.37741386 57.1024436,10.7036594 C56.7866622,11.3785233 56.378753,11.9914081 55.8572754,12.5261584 C55.678665,12.7092731 55.4996342,12.7557575 55.3046281,12.6696353 C55.0983913,12.5785884 54.9573167,12.3703697 54.997495,12.1553646 C55.0188754,12.0411356 55.0881815,11.9207207 55.1695592,11.8352591 C55.6509786,11.3298769 56.0195503,10.7526661 56.2989368,10.1162388 C56.6983179,9.20649076 56.904795,8.25091896 56.979206,7.26291621 C57.0392032,6.46661638 57.0097751,5.67398004 56.8843154,4.88650864 C56.6662473,3.51780262 56.2229644,2.2374409 55.3672678,1.12493935 C55.2759207,1.00626611 55.1711807,0.897562387 55.0836772,0.776306685 C54.9631422,0.609287315 54.9656046,0.430016255 55.0722063,0.256931097 C55.1757451,0.0887706385 55.3254079,-0.0326051783 55.5284617,0.00781338909 C55.6452131,0.0310555668 55.7709731,0.106247315 55.8521105,0.195132129 C56.3440999,0.734386685 56.7234819,1.34997408 57.0285731,2.01114497 C57.4709552,2.96983975 57.7517231,3.97615998 57.875261,5.02355941 C57.9336967,5.51903219 57.9594613,6.01828858 58,6.51586337 Z M54.5566143,6.44265351 C54.5557735,7.72998188 54.3122411,8.9626581 53.6734116,10.0946783 C53.5194847,10.3674586 53.3336674,10.6243837 53.1431056,10.8738017 C52.946598,11.130907 52.71808,11.1636983 52.4968289,10.9970994 C52.2641068,10.8218521 52.210836,10.5031881 52.3968935,10.2660218 C52.7011438,9.8782918 52.951823,9.46257512 53.1360188,9.00511861 C53.4167867,8.30773317 53.5580415,7.58109982 53.5947966,6.83350646 C53.6469864,5.77151311 53.5110166,4.73606509 53.0650311,3.76403758 C52.8960298,3.39576617 52.6603049,3.0553013 52.4310661,2.71837981 C52.2606835,2.46788078 52.2335977,2.23798141 52.4066829,2.01985328 C52.5994068,1.77704159 52.8970508,1.76364881 53.100585,1.99721167 C53.4311404,2.37641351 53.6901676,2.80246004 53.900188,3.25853523 C54.3042535,4.13585236 54.5055056,5.06187597 54.5555933,6.02309317 C54.5628603,6.16254623 54.5566143,6.30278004 54.5566143,6.44265351 Z M51.2788427,6.24974944 C51.2361419,7.3093405 50.8710536,8.25872641 50.3222499,9.14745443 C50.1883221,9.36438142 50.0052074,9.43434819 49.7725454,9.3715883 C49.5613839,9.31453386 49.3941243,9.13598349 49.4045742,8.9359326 C49.4104599,8.8229648 49.4572445,8.70273008 49.5156803,8.6035154 C49.8083395,8.10642108 50.0545144,7.59016847 50.1865804,7.02641053 C50.4345571,5.96796056 50.2528236,4.99701408 49.5859473,4.12600296 C49.3678792,3.84115116 49.387578,3.55641947 49.6293687,3.33835139 C49.8222128,3.16442543 50.0599196,3.16838921 50.2226749,3.36892056 C50.7350838,4.00042314 51.0828156,4.71096113 51.2070141,5.51999311 C51.2440695,5.76124331 51.2556005,6.00639724 51.2788427,6.24974944 Z" id="volume" fill="#FFFFFF" sketch:type="MSShapeGroup"></path>
            <path d="M68.0039899,0 L68.0039899,4.69114148 L69.7282321,4.69114148 L69.7282321,1.71238807 L72.6683392,1.71238807 L72.6683392,0 L68.0039899,0 Z M82.3264951,0.0025153832 L82.3264951,1.72242069 L85.2831787,1.72242069 L85.2831787,4.69201849 L87,4.69201849 L87,0.0025153832 L82.3264951,0.0025153832 Z M68,8.5607164 L68,13.2564839 L72.6673369,13.2564839 L72.6673369,11.5295432 L69.710557,11.5295432 L69.710557,8.5607164 L68,8.5607164 Z M85.2750446,8.56618085 L85.2750446,11.5444524 L82.3263602,11.5444524 L82.3263602,13.258768 L86.9981303,13.258768 L86.9981303,8.56618085 L85.2750446,8.56618085 Z" id="fullscreen" fill="#FFFFFF" sketch:type="MSShapeGroup"></path>
            <path d="M97,0 L97,14.9006162 L103.999602,7.44981117 L97,0 Z" id="play" fill="#FEFEFE" sketch:type="MSShapeGroup"></path>
            <path d="M114,0 L117,0 L117,13 L114,13 L114,0 Z M120,0 L123,0 L123,13 L120,13 L120,0 Z" id="pause" fill="#FFFFFF" sketch:type="MSShapeGroup"></path>
            <path d="M135.403406,7.98612296 C135.404981,7.98612296 135.406556,7.98559782 135.408657,7.98559782 L142.198821,7.98559782 L139.32206,10.8623587 C139.015899,11.1690451 139.015899,11.66531 139.32206,11.9714713 C139.628747,12.2776326 140.125011,12.2776326 140.431173,11.9714713 L144.417046,7.98559782 L145.201092,7.20155181 L144.417046,6.41698066 L140.431173,2.43110714 C140.27783,2.27828907 140.077223,2.20109231 139.876091,2.20109231 C139.67601,2.20109231 139.474878,2.27828907 139.32206,2.43110714 C139.015899,2.73779359 139.015899,3.23405848 139.32206,3.54021977 L142.198821,6.41698066 L132.927333,6.41698066 C132.925757,6.41698066 132.924182,6.41750581 132.922081,6.41750581 L130.798908,6.41750581 L130.798908,7.98612296 L135.403406,7.98612296 Z" id="up" fill="#FFFFFF" sketch:type="MSShapeGroup" transform="translate(138.000000, 7.201092) rotate(-90.000000) translate(-138.000000, -7.201092) "></path>
            <path d="M157.985025,8.62310551 C158.732323,7.57572954 159.411535,6.62884215 160.083812,5.6770375 C160.216074,5.48980344 160.341149,5.29273487 160.436972,5.08520136 C160.952402,3.96847944 160.610967,2.61585522 159.634324,1.86490165 C158.669533,1.12315218 157.331535,1.12441301 156.366617,1.86805374 C155.38657,2.62316806 154.978059,4.00428717 155.594229,5.07385384 C156.287815,6.27782557 157.143166,7.38849548 157.985025,8.62310551 M157.960187,0 C159.560439,0.057368011 160.760881,0.735823543 161.495948,2.10345171 C162.244001,3.49516183 162.15713,4.90830615 161.284506,6.21894456 C160.43609,7.4932709 159.524884,8.72624184 158.627673,9.96740822 C158.218658,10.5332711 157.783796,10.5307495 157.372259,9.96047362 C156.463575,8.70165555 155.533709,7.45569801 154.682393,6.15867662 C153.816325,4.83921237 153.779131,3.42278988 154.545214,2.04305769 C155.288225,0.704554825 156.486775,0.0641765222 157.960187,0" id="location" fill="#999999" sketch:type="MSShapeGroup"></path>
            <path d="M175.90061,14.0048166 L175.914492,14.0048166 L175.914492,13.9976363 L175.90061,14.0048166 Z M181.013454,8.36790759 L181.013454,8.41673355 C181.013454,8.61347344 180.972765,8.79968224 180.906707,8.97344521 C180.904313,8.98158287 180.90192,8.98924185 180.899526,8.99690082 C180.892825,9.01365483 180.886602,9.03088752 180.879422,9.04764152 C180.878943,9.04955626 180.877986,9.05099232 180.877507,9.05290707 C180.792301,9.29320737 180.66162,9.53398636 180.451476,9.75178843 C180.102036,10.1141536 179.587927,10.3525392 178.924469,10.4707746 C178.608057,10.5272595 178.260053,10.5583741 177.874232,10.5583741 L176.296483,10.5583741 C176.517157,10.9312704 177.014512,11.4396348 177.973798,11.4396348 L177.973798,11.7986492 L177.973798,12.1576636 C177.842638,12.1576636 177.718659,12.1490472 177.598987,12.1351653 C175.983423,11.9489565 175.43054,10.5856592 175.43054,10.1993597 L175.43054,9.84034531 L176.341958,9.84034531 L177.670312,9.84034531 L177.874232,9.84034531 C178.10783,9.84034531 178.323718,9.82837817 178.523808,9.8068373 C178.575507,9.80109307 178.624333,9.7934341 178.673637,9.78625381 C179.245667,9.70439853 179.670261,9.52728476 179.934974,9.25299776 C180.074751,9.10795594 180.161393,8.94233063 180.216442,8.77143978 C180.260481,8.63549299 180.284415,8.49667409 180.295425,8.36216336 C180.30452,8.25158693 180.306435,8.14388261 180.304999,8.04383726 L180.295425,8.04383726 L178.582208,8.04383726 L177.864179,8.04383726 L177.45969,8.04383726 L176.148569,8.04383726 L175.43054,8.04383726 L175.251512,8.04383726 L173.719238,8.04383726 C173.602918,8.04383726 173.495692,8.07399447 173.399476,8.12282043 C173.34347,8.1510629 173.291772,8.18504959 173.245818,8.22669526 C173.135242,8.3272193 173.059131,8.4626874 173.031367,8.61682424 C173.025623,8.64985357 173.0194,8.68288289 173.018442,8.71782696 L173.016528,8.76904635 C172.981105,9.91119082 172.922226,11.8230622 173.803487,12.733044 C174.164895,13.1059403 174.653633,13.2868835 175.297944,13.2868835 L175.416659,13.2868835 L175.775194,13.2868835 L175.914492,13.2868835 L177.230399,13.2868835 L175.914492,13.9972534 L175.914492,14.0049123 L175.90061,14.0049123 L175.581805,14.1767606 L175.581805,15.9335377 L175.789555,15.9335377 L180.457221,15.9335377 L180.669757,15.9335377 L180.669757,13.3610798 L180.663056,13.3495914 C181.589791,13.2758738 182.18767,12.7091097 182.571576,11.9594876 C182.877456,11.3620877 183,10.6871406 183,10.016023 L183,2.75148635 L183,2.35417708 L183,1.92048769 L183,1.89033048 C182.999043,1.88889442 182.997607,1.88793705 182.996649,1.88650099 C182.978459,1.35420231 182.543812,0.927214519 182.006727,0.927214519 C181.458153,0.927214519 181.013454,1.37191369 181.013454,1.92048769 L181.013454,8.36790759 Z M177.864131,7.32599994 L177.864131,5.79564123 L177.864131,5.06708135 L177.864131,4.38782611 L177.864131,4.33852146 C177.862695,4.33612803 177.860302,4.33469198 177.858387,4.33277723 C177.829666,3.88520595 177.461078,3.53002104 177.006326,3.53002104 C176.592742,3.53002104 176.247609,3.82297679 176.166711,4.21262708 C176.160967,4.21789262 176.154266,4.32751169 176.148521,4.33277723 L176.148521,4.38782611 L176.148521,5.06708135 L176.148521,5.87223097 L176.148521,5.90669635 L176.148521,7.32599994 L177.025953,7.32599994 L177.864131,7.32599994 Z M180.295425,5.919573 L180.295425,5.06703348 L180.295425,4.41123385 C180.295425,4.40309619 180.297818,4.3959159 180.297818,4.38777824 C180.297818,4.38011926 180.295425,4.37246029 180.295425,4.36480132 L180.295425,4.30305084 C180.289202,4.29730661 180.281543,4.20444155 180.27532,4.19869732 C180.189157,3.81622732 179.848332,3.52997317 179.440013,3.52997317 C178.979039,3.52997317 178.606142,3.89425311 178.586038,4.35044074 C178.584602,4.3518768 178.583166,4.35283417 178.582208,4.35427023 L178.582208,4.38777824 L178.582208,5.06703348 L178.582208,5.77979673 L178.582208,7.32595207 L180.295425,7.32595207 L180.295425,5.919573 Z M173.399333,1.79746542 L173.399333,2.11148335 L173.399333,7.36458202 C173.438585,7.35596568 173.478795,7.35117882 173.519004,7.34543459 C173.585063,7.33633956 173.650643,7.32580847 173.719095,7.32580847 L175.251368,7.32580847 L175.430397,7.32580847 L175.430397,5.06688987 L175.430397,4.68298381 L175.430397,2.10765386 L175.430397,1.40254958 L175.430397,1.03348278 C175.430397,1.02773855 175.432312,1.02247301 175.432312,1.01720746 C175.432312,1.01146323 175.430397,1.00619769 175.430397,1.00093214 L175.430397,0.978433907 C175.429918,0.976997849 175.428482,0.976040477 175.428003,0.975083106 C175.405505,0.433210707 174.962242,0 174.415104,0 C173.868924,0 173.427096,0.430817278 173.402205,0.970774933 C173.401726,0.97221099 173.40029,0.973168362 173.399333,0.97460442 L173.399333,1.00093214 C173.399333,1.00619769 173.397897,1.01146323 173.397897,1.01720746 C173.397897,1.02247301 173.399333,1.02773855 173.399333,1.03348278 L173.399333,1.79746542 Z" id="rock" fill="#FFFFFF" sketch:type="MSShapeGroup"></path>
            <path d="M10.5692868,27.9009388 C10.5736708,25.3735451 8.56797678,23.4094994 5.97701466,23.4029233 C3.48030921,23.3974433 1.44063895,25.3680651 1.42967888,27.796818 C1.41762279,30.3899722 3.41126073,32.375938 6.02195098,32.37265 C8.55482468,32.369362 10.5649027,30.3932602 10.5692868,27.9009388 M6.08442342,33.7744438 C2.81832058,33.8237642 0.080493446,31.1856737 0.00158089437,27.9129948 C-0.0762356496,24.7663569 2.72954396,22.0120896 6.025239,22.0000335 C9.21023727,21.9890734 11.9590245,24.6677162 11.9995768,27.8209302 C12.039033,30.9829123 9.31435799,33.7262195 6.08442342,33.7744438 Z M5.94051761,24.9136603 C6.1114948,25.1767021 6.39207277,25.4254959 6.43152904,25.7071698 C6.50934559,26.2716138 6.48852144,26.8557859 6.44796916,27.4279019 C6.40960889,27.9496015 6.55208988,28.3463563 6.9696688,28.6839266 C7.30614316,28.9557365 7.67111371,29.2494666 7.86839509,29.6144371 C8.00320403,29.8632309 7.97909186,30.3246501 7.81907474,30.5493317 C7.71824204,30.6907167 7.13626197,30.6961967 6.94446063,30.5471397 C6.35700052,30.0879125 5.84078091,29.5355246 5.3234653,28.9951928 C5.20290445,28.8713439 5.13495198,28.6521424 5.13166396,28.4745892 C5.11193582,27.5649028 5.08343962,26.6530244 5.14481605,25.7466261 C5.16454419,25.4627601 5.45389021,25.1964303 5.61938736,24.9224283 C5.72679612,24.9191403 5.83420487,24.9158523 5.94051761,24.9136603 Z" id="clock" fill="#999999" sketch:type="MSShapeGroup"></path>
            <path d="M27.0065619,30.8641088 C27.0560049,30.8201595 27.1017855,30.7817038 27.1439036,30.7405013 C28.49443,29.4110339 29.845872,28.0797353 31.1954829,26.7493523 C31.2641537,26.6806815 31.3319089,26.6101795 31.3877612,26.5323525 C31.6954065,26.0974372 31.4967189,25.5288427 30.9839767,25.3676951 C30.6259727,25.255075 30.3659392,25.4189694 30.1251334,25.6570283 C29.1426827,26.6275761 28.1593163,27.5962926 27.1750344,28.5650092 C27.1191821,28.6199459 27.060583,28.6721357 26.9250725,28.7984901 C26.5350222,28.3745621 26.1669465,27.953381 25.7741493,27.5550901 C25.4646728,27.2419511 24.9784833,27.2556853 24.6854877,27.5532589 C24.3924921,27.8499169 24.3796736,28.3068069 24.6909814,28.6144522 C25.4536854,29.370747 26.2301237,30.1114764 27.0065619,30.8641088 M28.0018312,33.9021065 C24.8164201,33.9039378 22.0018315,31.4116442 22.0000002,27.9515498 C21.9990846,24.6013286 24.6781628,21.9835964 28.0192278,22.0000774 C31.4967189,22.0156428 33.9981685,24.7890289 33.9999998,27.9478873 C34.0009154,31.245003 31.3163435,33.9021065 28.0018312,33.9021065" id="check" fill="#1ACC5D" sketch:type="MSShapeGroup"></path>
            <path d="M0,44 L20,44 L20,46 L0,46 L0,44 Z M0,51 L20,51 L20,53 L0,53 L0,51 Z M0,58 L20,58 L20,60 L0,60 L0,58 Z" id="menu" fill="#FFFFFF" sketch:type="MSShapeGroup"></path>
            <g id="user" sketch:type="MSLayerGroup" transform="translate(30.000000, 44.000000)">
                <path d="M9.93195804,1.05297776 L9.93195804,1.05297776 L9.92902638,1.05296956 C8.17258305,1.04561163 6.62087066,1.30859758 5.19381313,1.89012576 C3.90477701,2.4150681 2.89198174,3.14713314 2.1058386,4.16086685 C1.07229511,5.49309493 0.841897331,7.08225421 1.22964747,9.28785549 C1.95802552,13.4281603 3.6620321,17.2631152 6.31625872,20.9855326 C7.2611796,22.3111249 8.15050837,23.2501776 9.15988718,23.9219601 C9.75413995,24.3176738 10.2091331,24.3287363 10.7362628,23.9653879 C11.3747063,23.5265465 11.6567276,23.3079478 11.9173402,23.0257928 C15.5694668,19.0830406 17.8737741,14.3679095 18.8165697,8.8875302 C19.3309884,5.89660221 18.3385981,3.88122387 15.850727,2.4121859 C14.2185548,1.44810933 12.3586617,1.05638605 9.93195804,1.05297776 L9.93195804,1.05297776 Z M9.93343672,0.000159362097 C12.182259,0.0033178204 14.3773876,0.319163651 16.386167,1.50569115 C19.062434,3.08597312 20.4774234,5.44218302 19.8541542,9.06598751 C18.8750322,14.7575294 16.473551,19.6562982 12.689718,23.7412376 C12.2949107,24.1686823 11.8074553,24.5066373 11.3326337,24.8330114 C10.4177337,25.4636502 9.4933582,25.4089036 8.57635247,24.7982683 C7.32981426,23.9686466 6.34226963,22.8358129 5.45895412,21.5966444 C2.87954651,17.9791568 0.989735627,14.0005522 0.192751316,9.47027017 C-0.182052403,7.33831082 -0.103090945,5.29057702 1.27399687,3.51552345 C2.22679846,2.28688317 3.42911826,1.47200093 4.7967307,0.91505945 C6.45281567,0.240202193 8.17417544,-0.00721037394 9.93343672,0.000159362097 L9.93343672,0.000159362097 Z" id="Shape" fill="#FEFEFE" sketch:type="MSShapeGroup"></path>
                <path d="M5.06842839,18.1944223 C5.93923577,16.3848544 7.44402476,15.332848 9.92529141,15.1129542 L9.87114254,14.5019421 L9.87114254,15.1153489 L10.2203755,15.1153489 L10.2203755,14.5019421 L10.166232,15.1129547 C12.6753291,15.3352927 14.1859258,16.4077772 15.0518857,18.2554108 C15.1956573,18.5621654 15.5608809,18.6942893 15.8676355,18.5505177 C16.1743901,18.4067461 16.3065139,18.0415225 16.1627424,17.7347679 C15.1127046,15.4943811 13.2221353,14.1521259 10.274519,13.8909295 L10.2203755,13.8885353 L9.87114254,13.8885353 L9.81699367,13.8909299 C6.90270151,14.1491992 5.02033518,15.465172 3.96295602,17.6624426 C3.81605387,17.9677104 3.94443457,18.3342665 4.24970233,18.4811687 C4.5549701,18.6280708 4.92152624,18.4996901 5.06842839,18.1944223 L5.06842839,18.1944223 Z" id="Shape" fill="#FFFFFF" sketch:type="MSShapeGroup"></path>
                <path d="M14.1780762,11.1134829 C14.1780762,8.8400226 12.3351679,6.9971143 10.0617076,6.9971143 C7.78819144,6.9971143 5.94493006,8.84007845 5.94493006,11.1134829 C5.94493006,13.3868873 7.78819144,15.2298515 10.0617076,15.2298515 C12.3351679,15.2298515 14.1780762,13.3869432 14.1780762,11.1134829 L14.1780762,11.1134829 Z M12.9512626,11.1134829 C12.9512626,12.7093927 11.6576174,14.0030379 10.0617076,14.0030379 C8.4656976,14.0030379 7.17174367,12.7092926 7.17174367,11.1134829 C7.17174367,9.51767319 8.4656976,8.2239279 10.0617076,8.2239279 C11.6576174,8.2239279 12.9512626,9.51757305 12.9512626,11.1134829 L12.9512626,11.1134829 Z" id="Shape" fill="#FFFFFF" sketch:type="MSShapeGroup"></path>
            </g>
            <path d="M67.489,49.771 L61.726,44 L60,45.726 L65.763,51.497 L60,57.27 L61.726,58.999 L67.489,53.227 L73.252,58.999 L74.977,57.27 L69.214,51.497 L74.977,45.726 L73.252,44 L67.489,49.771 Z" id="Fill-1" fill="#FEFEFE" sketch:type="MSShapeGroup"></path>
            <path d="M11.7113467,80 C11.1290749,80 10.6584304,80.4696389 10.6584304,81.0498994 C10.6584304,81.6291543 11.1290749,82.0987932 11.7113467,82.0987932 C22.1640811,82.0987932 30.66887,90.5784408 30.66887,101 C30.66887,111.421559 22.1640811,119.901207 11.7113467,119.901207 C8.12217903,119.901207 4.62955381,118.898573 1.61360706,117.00091 C1.12486077,116.693181 0.47319905,116.834977 0.162452953,117.328752 C-0.148293144,117.81951 0.000543174478,118.466143 0.491300765,118.775884 C3.84414053,120.884733 7.72293567,122 11.7113467,122 C23.3256078,122 32.7736971,112.580069 32.7736971,101 C32.7736971,89.419931 23.3256078,80 11.7113467,80" id="vid" fill="#FEFEFE" sketch:type="MSShapeGroup"></path>
        </g>
    </g>
</svg>